HIERARCHY
ROOT Hips
{
	OFFSET 0.0 0.0 0.0
	CHANNELS 6 Xposition Yposition Zposition Zrotation Xrotation Yrotation
	JOINT LeftUpLeg
	{
		OFFSET 13.975473 0.0 0.0
		CHANNELS 3 Zrotation Xrotation Yrotation
		JOINT LeftLeg
		{
			OFFSET 0.0 -55.901894 0.0
			CHANNELS 3 Zrotation Xrotation Yrotation
			JOINT LeftFoot
			{
				OFFSET 0.0 -51.243401 0.0
				CHANNELS 3 Zrotation Xrotation Yrotation
				JOINT LeftToeBase
				{
					OFFSET 0.0 -5.274969 19.686443
					CHANNELS 3 Zrotation Xrotation Yrotation
					JOINT EndSite
					{
						OFFSET 0.0 0.0 8.734671
					}
				}
			}
		}
	}
	JOINT RightUpLeg
	{
		OFFSET -13.975473 0.0 0.0
		CHANNELS 3 Zrotation Xrotation Yrotation
		JOINT RightLeg
		{
			OFFSET 0.0 -55.901894 0.0
			CHANNELS 3 Zrotation Xrotation Yrotation
			JOINT RightFoot
			{
				OFFSET 0.0 -51.243401 0.0
				CHANNELS 3 Zrotation Xrotation Yrotation
				JOINT RightToeBase
				{
					OFFSET 0.0 -5.274969 19.686443
					CHANNELS 3 Zrotation Xrotation Yrotation
					JOINT EndSite
					{
						OFFSET 0.0 0.0 8.734671
					}
				}
			}
		}
	}
	JOINT Spine
	{
		OFFSET 0.0 0.116462 0.0
		CHANNELS 3 Zrotation Xrotation Yrotation
		JOINT Spine1
		{
			OFFSET 0.0 27.368635 0.0
			CHANNELS 3 Zrotation Xrotation Yrotation
			JOINT Neck
			{
				OFFSET 0.0 25.621700 0.0
				CHANNELS 3 Zrotation Xrotation Yrotation
				JOINT Head
				{
					OFFSET 0.0 13.393162 0.0
					CHANNELS 3 Zrotation Xrotation Yrotation
					JOINT EndSite
					{
						OFFSET 0.0 13.393162 0.0
					}
				}
			}
			JOINT LeftShoulder
			{
				OFFSET 0.0 25.621700 0.0
				CHANNELS 3 Zrotation Xrotation Yrotation
				JOINT LeftArm
				{
					OFFSET 17.469341 -0.000059 0.0
					CHANNELS 3 Zrotation Xrotation Yrotation
					JOINT LeftForeArm
					{
						OFFSET 34.938683 -0.000118 0.0
						CHANNELS 3 Zrotation Xrotation Yrotation
						JOINT LeftHand
						{
							OFFSET 32.027126 -0.000118 0.0
							CHANNELS 3 Zrotation Xrotation Yrotation
							JOINT LeftHandThumb
							{
								OFFSET 0.0 0.0 0.0
								CHANNELS 3 Zrotation Xrotation Yrotation
								JOINT EndSite
								{
									OFFSET 0.0 0.0 11.646228
								}
							}
							JOINT L_Wrist_End
							{
								OFFSET 11.646228 -0.000030 0.0
								CHANNELS 3 Zrotation Xrotation Yrotation
							}
						}
					}
				}
			}
			JOINT RightShoulder
			{
				OFFSET 0.0 25.621700 0.0
				CHANNELS 3 Zrotation Xrotation Yrotation
				JOINT RightArm
				{
					OFFSET -17.469341 -0.000059 0.0
					CHANNELS 3 Zrotation Xrotation Yrotation
					JOINT RightForeArm
					{
						OFFSET -34.938683 -0.000118 0.0
						CHANNELS 3 Zrotation Xrotation Yrotation
						JOINT RightHand
						{
							OFFSET -32.027126 -0.000118 0.0
							CHANNELS 3 Zrotation Xrotation Yrotation
							JOINT RightHandThumb
							{
								OFFSET 0.0 0.0 0.0
								CHANNELS 3 Zrotation Xrotation Yrotation
								JOINT EndSite
								{
									OFFSET 0.0 0.0 11.646228
								}
							}
							JOINT R_Wrist_End
							{
								OFFSET -16.013578 -0.000059 0.0
								CHANNELS 3 Zrotation Xrotation Yrotation
							}
						}
					}
				}
			}
		}
	}
}
MOTION
Frames: 12
Frame Time: 0.016667
-76.747368 111.529564 -195.010574 -2.064210 0.995448 2.799471 -6.267524 5.379239 0.143756  -0.0 10.767300 -0.0  9.379896 -17.148441 6.250206  0.0 -2.324600 0.0   0.028244 -25.950052 1.027259  -0.0 50.193100 -0.0  7.088329 -15.721874 -10.179784  0.0 -5.016100 0.0   -0.285905 0.592627 -1.586763  3.058384 7.235612 -1.035074  -1.588806 -1.086544 15.275085  -4.393778 -20.989996 -8.263274   -18.316292 1.317916 3.565952  -32.506771 54.418633 -16.285294  0.0 -0.000100 -34.447498  -6.001111 -23.528603 -2.226158  -0.0 0.0 -0.0   -0.0 0.0 -0.0  14.989941 5.368198 -4.021377  45.817451 38.391869 -0.425398  -0.0 -0.000100 33.245914  11.676945 -16.039557 -1.268099  -0.0 0.0 -0.0   -0.0 0.0 -0.0 
-76.549759 111.442589 -194.231384 -2.337188 1.024354 3.033497 -6.058831 5.517097 -0.026308  -0.0 11.263100 -0.0  9.396533 -17.675760 6.253364  0.0 -2.376200 0.0   0.865403 -26.224607 1.615151  -0.0 47.091602 -0.0  6.946294 -15.728057 -10.307467  0.0 -4.906700 0.0   -0.348576 0.794265 -1.717400  3.217243 7.032021 -1.157060  -1.585941 -0.913638 15.467587  -4.184159 -21.006128 -8.074843   -18.101158 1.518648 3.509792  -31.974779 53.497868 -17.021236  0.0 -0.000100 -35.374012  -6.190171 -22.037113 -2.080438  -0.0 0.0 -0.0   -0.0 0.0 -0.0  15.017763 5.496583 -4.324537  46.343323 38.938301 -1.120890  0.0 -0.000100 33.408096  12.068587 -15.621328 -1.995361  -0.0 0.0 -0.0   -0.0 0.0 -0.0 
-76.338257 111.386383 -193.438019 -3.294600 1.091936 3.607919 -5.087249 5.506452 -0.005596  -0.0 11.956201 -0.0  9.005651 -18.722925 5.630434  0.0 -2.156300 0.0   2.160227 -26.293922 1.726433  -0.0 43.353001 -0.0  7.153728 -15.135847 -9.969954  0.0 -5.248497 0.0   -0.008797 1.090492 -1.903233  4.031572 6.653447 -1.302613  -1.877563 -0.686854 15.292314  -4.324327 -21.340816 -8.066378   -18.393951 1.735776 3.431092  -30.986412 52.774529 -18.142851  -0.0 -0.000200 -36.073002  -5.485373 -22.843689 -2.541142  -0.0 0.0 -0.0   -0.0 0.0 -0.0  15.082485 5.497128 -4.772659  46.607082 39.266109 -2.137815  -0.0 -0.000100 33.692104  12.660705 -14.974599 -1.635687  -0.0 0.0 -0.0   -0.0 0.0 -0.0 
-76.070839 111.255646 -192.581619 -3.373697 1.155821 3.650946 -5.161613 5.681643 -0.218357  -0.0 12.419200 -0.0  9.240024 -19.008919 5.996322  0.0 -2.505500 0.0   2.708448 -26.349838 2.156522  -0.0 39.635799 -0.0  7.714190 -14.868637 -8.826573  0.0 -4.938500 0.0   -0.111258 1.216566 -1.989642  4.043936 6.564717 -1.388558  -1.780957 -0.727044 15.412342  -4.168718 -21.121855 -7.955330   -18.236008 1.748758 3.344166  -30.647638 51.892216 -18.487608  -0.000080 -0.000140 -37.148895  -5.116964 -22.713362 -2.059718  -0.0 0.0 -0.0   -0.0 0.0 -0.0  15.020808 5.597654 -4.853765  47.060417 40.222992 -2.744886  -0.0 -0.000100 33.833302  12.822854 -15.167983 -1.876572  -0.0 0.0 -0.0   -0.0 0.0 -0.0 
-75.819397 111.119568 -191.687363 -3.524589 1.241959 3.826090 -5.121223 5.898252 -0.399403  -0.0 12.792300 -0.0  9.404649 -19.288240 6.062634  0.0 -3.099300 0.0   3.297967 -26.300465 2.462788  -0.0 35.707695 -0.0  8.036785 -14.200697 -7.650928  0.0 -4.468800 0.0   -0.194624 1.309230 -2.066965  4.102304 6.512958 -1.465730  -1.874499 -0.586444 15.629696  -4.085833 -21.296240 -7.681343   -18.144293 1.687768 3.290070  -30.252050 51.003922 -18.878534  -0.000079 -0.000138 -38.132500  -5.309580 -21.372795 -2.043798  -0.0 0.0 -0.0   -0.0 0.0 -0.0  15.028837 5.661001 -5.009709  47.489349 40.807529 -3.336596  0.0 -0.000100 33.876110  13.277660 -14.974366 -1.737605  -0.0 0.0 -0.0   -0.0 0.0 -0.0 
-75.564697 110.977867 -190.719193 -3.706041 1.346339 4.033961 -5.034563 6.121247 -0.498535  -0.0 13.194100 -0.0  9.318652 -19.649899 6.092371  0.0 -3.489900 0.0   3.853318 -26.106516 2.685283  -0.0 31.523300 -0.0  9.013947 -13.204233 -6.050069  0.0 -4.094800 0.0   -0.242998 1.364013 -2.145435  4.213133 6.394692 -1.538635  -1.938223 -0.466069 15.683246  -4.127398 -21.356289 -7.526511   -18.092749 1.806263 3.258504  -29.866436 49.961521 -19.327690  -0.000078 -0.000137 -39.020100  -4.749454 -21.926218 -1.720139  -0.0 0.0 -0.0   -0.0 0.0 -0.0  15.101570 5.945191 -5.215017  47.687550 41.120689 -3.874271  0.0 -0.000100 34.286999  13.670179 -14.638874 -1.869562  -0.0 0.0 -0.0   -0.0 0.0 -0.0 
-75.313553 110.869003 -189.690338 -4.030541 1.465466 4.391868 -4.771373 6.407761 -0.647522  -0.0 13.405403 -0.0  9.621623 -19.792669 6.121638  0.0 -4.297600 0.0   4.550974 -25.670887 3.057034  -0.0 26.919304 -0.0  9.200891 -11.715631 -4.804524  0.0 -3.660900 0.0   -0.221092 1.334813 -2.228866  4.450911 6.360677 -1.616027  -2.057181 -0.256345 15.794350  -4.147299 -21.641443 -7.306730   -18.180664 1.703315 3.118826  -29.303448 49.383549 -19.798780  -0.000077 -0.000136 -39.639702  -4.881108 -21.690517 -2.284593  -0.0 0.0 -0.0   -0.0 0.0 -0.0  15.250935 5.846030 -5.374362  48.000599 41.943443 -4.741255  0.0 -0.000100 34.298599  13.392109 -14.346815 -1.355726  -0.0 0.0 -0.0   -0.0 0.0 -0.0 
-75.065659 110.713707 -188.636642 -4.229160 1.581945 4.656442 -4.623573 6.639158 -0.601144  -0.0 13.841800 -0.0  9.942508 -20.184748 6.006551  0.0 -4.714900 0.0   5.106198 -25.297405 3.318268  -0.0 22.654699 -0.0  9.940857 -10.441307 -3.488822  0.0 -2.989200 0.0   -0.249166 1.349859 -2.309452  4.563313 6.273932 -1.691666  -2.193208 -0.233236 15.983796  -4.043052 -21.619286 -7.063673   -18.123129 1.716823 3.066211  -28.905489 48.639900 -20.175566  -0.000076 -0.000135 -40.478001  -3.955564 -21.849558 -2.061568  -0.0 0.0 -0.0   -0.0 0.0 -0.0  15.160308 5.454549 -5.549152  48.638577 42.836575 -5.493507  -0.0 -0.000100 34.103699  13.467680 -14.302059 -1.293387  -0.0 0.0 -0.0   -0.0 0.0 -0.0 
-74.781677 110.551598 -187.467285 -4.448860 1.706360 4.937242 -4.469282 6.993527 -0.569683  -0.0 14.107700 -0.0  9.989729 -20.488771 5.824585  0.0 -5.123700 0.0   5.727920 -24.723007 4.360168  -0.0 18.269707 -0.0  10.876475 -9.678751 -2.691790  0.0 -2.435000 0.0   -0.232859 1.256371 -2.351714  4.728015 6.205719 -1.727028  -2.603912 -0.076920 16.304007  -3.901976 -21.718081 -6.636727   -18.149910 1.710408 3.022864  -28.516848 48.025635 -20.561413  -0.000075 -0.000134 -41.030003  -3.906036 -21.331795 -2.209390  -0.0 0.0 -0.0   -0.0 0.0 -0.0  15.153030 5.799908 -5.754217  48.716557 42.964535 -5.784908  0.0 -0.000100 34.392406  13.655976 -14.364517 -1.530535  -0.0 0.0 -0.0   -0.0 0.0 -0.0 
-74.499771 110.397179 -186.255630 -4.680069 1.819928 5.329063 -4.253308 7.353672 -0.529229  -0.0 14.409100 -0.0  9.922900 -20.768080 5.475247  0.0 -5.823500 0.0   6.312836 -24.032093 5.793866  -0.0 14.009700 -0.0  12.951767 -9.501651 -2.358191  0.0 -1.971800 0.0   -0.211054 1.135191 -2.410635  4.917177 6.232420 -1.784060  -2.786697 0.009872 16.266451  -3.896409 -21.819082 -6.615448   -18.194149 1.682474 2.933670  -28.129723 47.487888 -20.965734  -0.000075 -0.000134 -41.539600  -3.585222 -21.170166 -2.093792  -0.0 0.0 -0.0   -0.0 0.0 -0.0  15.096913 5.546611 -5.921970  49.128181 43.425644 -6.467926  -0.0 -0.000100 34.366199  13.743176 -14.351215 -1.525434  -0.0 0.0 -0.0   -0.0 0.0 -0.0 
-74.203651 110.227684 -184.967056 -4.887378 1.905642 5.741445 -4.047585 7.718131 -0.481834  -0.0 14.855000 -0.0  9.839350 -21.065655 5.072564  0.0 -6.451100 0.0   6.808819 -23.336922 7.529800  -0.0 10.269198 -0.0  14.130953 -9.354879 -2.393704  0.0 -1.654800 0.0   -0.202344 0.983365 -2.450843  5.100030 6.256989 -1.822749  -2.999792 0.076924 16.480644  -3.809207 -21.840429 -6.305736   -18.228354 1.742630 2.853336  -27.794436 46.912407 -21.339592  -0.000074 -0.000133 -41.984409  -3.934381 -19.845375 -2.078361  -0.0 0.0 -0.0   -0.0 0.0 -0.0  15.160535 5.843208 -6.055411  49.120239 43.228218 -6.578131  -0.0 -0.000100 34.240101  13.907283 -14.239066 -1.448634  -0.0 0.0 -0.0   -0.0 0.0 -0.0 
-73.899857 110.055229 -183.600403 -5.052135 1.967174 6.193820 -3.873941 8.083721 -0.558906  -0.0 15.442100 -0.0  9.570346 -21.352314 4.646621  0.0 -7.023800 0.0   7.216819 -22.710407 9.608621  -0.0 7.371600 -0.0  15.444594 -9.305494 -3.060943  0.0 -1.272300 0.0   -0.202830 0.826801 -2.483289  5.244072 6.261003 -1.853284  -3.217295 0.082603 16.724777  -3.780898 -21.747618 -5.928765   -18.268858 1.745126 2.814142  -27.524586 46.454967 -21.654461  -0.000074 -0.000133 -42.295502  -3.491269 -20.924461 -2.180217  -0.0 0.0 -0.0   -0.0 0.0 -0.0  15.197215 5.960763 -6.177847  49.209827 43.174992 -6.911398  0.0 -0.000100 34.271294  14.217941 -14.466143 -1.447336  -0.0 0.0 -0.0   -0.0 0.0 -0.0 
